{
  "asset": { "version": "2.0", "generator": "ForgeaX sample authoring fixture" },
  "scene": 0,
  "scenes": [{ "nodes": [0] }],
  "nodes": [{ "mesh": 0 }],
  "materials": [{ "name": "ParityPaint", "pbrMetallicRoughness": { "baseColorFactor": [0.1, 0.7, 0.9, 1] } }],
  "meshes": [{ "primitives": [{ "attributes": { "POSITION": 0 }, "indices": 1, "material": 0 }] }],
  "accessors": [
    { "bufferView": 0, "componentType": 5126, "count": 3, "type": "VEC3", "min": [-1, -1, 0], "max": [1, 1, 0] },
    { "bufferView": 1, "componentType": 5123, "count": 3, "type": "SCALAR" }
  ],
  "bufferViews": [
    { "buffer": 0, "byteOffset": 0, "byteLength": 36, "target": 34962 },
    { "buffer": 0, "byteOffset": 36, "byteLength": 6, "target": 34963 }
  ],
  "buffers": [{ "uri": "data:application/octet-stream;base64,", "byteLength": 42 }]
}
